<svg width="51" height="51" viewBox="0 0 51 51" fill="none" xmlns="http://www.w3.org/2000/svg">
<g clip-path="url(#clip0_574_4471)">
<path d="M44.18 39.13C51.57 31.51 50.03 18.0299 40.75 9.02991C31.4701 0.0299139 17.95 -1.09009 10.56 6.52991C9.66999 7.43991 6.80006 10.68 6.13006 11.37C-1.25994 18.99 0.279987 32.46 9.55999 41.47C18.84 50.48 32.3601 51.59 39.75 43.97C40.6301 43.05 43.51 39.82 44.18 39.13Z" fill="#F38864"/>
<path d="M3.90997 14.25C0.119971 20.55 0.78004 29.25 5.48004 36.49C9.48004 36.49 14.1301 33.4899 16.0001 26.2999C29.1701 25.9099 38.13 11.0399 26.08 1.66992C25.188 1.55226 24.2898 1.48887 23.3901 1.47998C16.2486 4.65459 9.66957 8.96735 3.90997 14.25Z" fill="#B9674B"/>
<path d="M27.1699 50.49C26.5299 50.49 25.89 50.49 25.24 50.41C18.9299 49.7847 13.03 46.9973 8.5399 42.5199C-1.3101 32.9699 -2.87007 18.52 5.06993 10.35C5.36993 10.04 6.18998 9.13004 6.98998 8.25004C7.98998 7.15004 8.98999 6.01005 9.50999 5.51005C11.5284 3.49621 13.9742 1.96236 16.666 1.02238C19.3578 0.0824039 22.2267 -0.239663 25.0599 0.080001C31.3479 0.795764 37.2222 3.57264 41.7663 7.97746C46.3105 12.3823 49.2688 18.1673 50.1799 24.43C50.5894 27.253 50.358 30.1321 49.5028 32.8534C48.6476 35.5748 47.1906 38.0686 45.24 40.1499C44.94 40.4499 44.1199 41.37 43.3199 42.25C42.3199 43.35 41.3199 44.48 40.7999 44.99C39.0204 46.7841 36.8942 48.197 34.5509 49.1426C32.2076 50.0882 29.6962 50.5467 27.1699 50.49ZM23.1699 2.93999C21.0345 2.88734 18.9107 3.26878 16.9271 4.0612C14.9435 4.85362 13.1414 6.04051 11.63 7.54997C11.18 8.01997 10.1199 9.19002 9.18993 10.22C8.25993 11.25 7.52993 12.0499 7.18993 12.3899C0.379927 19.3899 1.89995 31.9899 10.59 40.3899C14.5972 44.3952 19.8634 46.8959 25.5 47.47C27.8998 47.7502 30.3318 47.4876 32.6166 46.7018C34.9013 45.916 36.9802 44.627 38.6999 42.93C39.1599 42.46 40.22 41.29 41.15 40.25C42.08 39.21 42.81 38.43 43.15 38.09C44.7954 36.3169 46.0208 34.1963 46.7357 31.8854C47.4506 29.5745 47.6367 27.1325 47.28 24.74C46.4483 19.1531 43.7999 13.9955 39.7439 10.0643C35.6879 6.133 30.4501 3.64689 24.84 2.99004C24.26 2.96004 23.7 2.93999 23.15 2.93999H23.1699Z" fill="#291515"/>
<path d="M44.1967 38.9909C51.5851 31.3694 50.0459 17.8926 40.7588 8.88966C31.4718 -0.113255 17.9537 -1.23311 10.5653 6.38844C3.17692 14.01 4.71613 27.4868 14.0032 36.4897C23.2902 45.4926 36.8083 46.6125 44.1967 38.9909Z" fill="#FFD543"/>
<path d="M36.5715 31.5889C40.6078 27.4252 39.7652 20.061 34.6894 15.1405C29.6137 10.2201 22.2268 9.60657 18.1905 13.7703C14.1542 17.934 14.9969 25.2982 20.0726 30.2186C25.1484 35.1391 32.5352 35.7526 36.5715 31.5889Z" fill="#FFD543"/>
<path d="M31.6 45.6499C30.97 45.6499 30.33 45.65 29.68 45.57C23.3675 44.943 17.4651 42.156 12.97 37.68C3.12001 28.13 1.57005 13.6801 9.51005 5.51005C11.5285 3.49621 13.9742 1.96236 16.6661 1.02238C19.3579 0.0824039 22.2267 -0.239663 25.06 0.080001C31.348 0.795764 37.2223 3.57264 41.7664 7.97746C46.3105 12.3823 49.2689 18.1673 50.18 24.43C50.5894 27.253 50.358 30.1321 49.5028 32.8534C48.6477 35.5748 47.1907 38.0686 45.24 40.1499C43.458 41.9434 41.3298 43.3558 38.985 44.3013C36.6402 45.2468 34.1277 45.7056 31.6 45.6499ZM23.1501 2.93999C21.0147 2.88734 18.8908 3.26878 16.9071 4.0612C14.9235 4.85362 13.1214 6.04051 11.61 7.54997C4.80002 14.55 6.33006 27.15 15.0201 35.55C19.0238 39.5546 24.2864 42.0553 29.92 42.6301C32.3213 42.9103 34.7548 42.6479 37.0412 41.8621C39.3275 41.0763 41.4084 39.7872 43.13 38.09C44.7754 36.3169 46.0008 34.1963 46.7157 31.8854C47.4306 29.5745 47.6167 27.1325 47.26 24.74C46.4284 19.1531 43.7799 13.9955 39.7239 10.0643C35.6679 6.133 30.4302 3.64689 24.82 2.99004C24.26 2.96004 23.7001 2.93999 23.1501 2.93999Z" fill="#291515"/>
<path d="M29.69 35.9701C29.32 35.9701 28.95 35.9701 28.58 35.9701C24.9906 35.5683 21.6361 33.9865 19.0426 31.4727C16.4492 28.9589 14.7635 25.6552 14.25 22.0801C13.9881 20.4386 14.1122 18.7586 14.6126 17.1734C15.1129 15.5882 15.9756 14.1414 17.1325 12.9477C18.2893 11.754 19.7084 10.8462 21.2771 10.2964C22.8458 9.74658 24.521 9.56976 26.17 9.78006C29.7596 10.1856 33.1134 11.7701 35.7065 14.2853C38.2995 16.8005 39.9853 20.1045 40.5 23.6801C40.7377 25.3213 40.6012 26.995 40.1007 28.5761C39.6003 30.1571 38.7488 31.6045 37.61 32.8101C36.5731 33.8463 35.3363 34.6608 33.9748 35.204C32.6132 35.7472 31.1554 36.0079 29.69 35.9701ZM25.07 12.6302C23.9923 12.5992 22.9196 12.7881 21.9173 13.1852C20.9149 13.5824 20.004 14.1794 19.24 14.9401C18.4104 15.8379 17.7929 16.9105 17.4329 18.0788C17.0729 19.247 16.9796 20.481 17.1599 21.6901C17.5985 24.5913 18.9765 27.2685 21.0827 29.3114C23.1888 31.3543 25.9068 32.6502 28.82 33.0001C30.032 33.1736 31.2679 33.0582 32.4268 32.6634C33.5857 32.2685 34.635 31.6053 35.4889 30.7279C36.3429 29.8506 36.9775 28.7838 37.3409 27.6147C37.7042 26.4455 37.7862 25.207 37.58 24.0001C37.1442 21.0988 35.7669 18.421 33.6601 16.3792C31.5532 14.3374 28.8336 13.0447 25.92 12.7001L25.07 12.6302Z" fill="#291515"/>
</g>
<defs>
<clipPath id="clip0_574_4471">
<rect width="50.33" height="50.49" fill="white"/>
</clipPath>
</defs>
</svg>
