<svg width="22" height="21" viewBox="0 0 22 21" fill="none" xmlns="http://www.w3.org/2000/svg">
<path d="M18.57 2.33984L12.0117 7.21075L13.2245 4.33698L18.57 2.33984Z" fill="#E2761B" stroke="#E2761B" stroke-width="0.0659121" stroke-linecap="round" stroke-linejoin="round"/>
<path d="M3.42578 2.33984L9.93131 7.25689L8.77785 4.33698L3.42578 2.33984Z" fill="#E4761B" stroke="#E4761B" stroke-width="0.0659121" stroke-linecap="round" stroke-linejoin="round"/>
<path d="M16.2057 13.6309L14.459 16.3069L18.1962 17.3351L19.2706 13.6902L16.2057 13.6309Z" fill="#E4761B" stroke="#E4761B" stroke-width="0.0659121" stroke-linecap="round" stroke-linejoin="round"/>
<path d="M2.73438 13.6902L3.80215 17.3351L7.53937 16.3069L5.7927 13.6309L2.73438 13.6902Z" fill="#E4761B" stroke="#E4761B" stroke-width="0.0659121" stroke-linecap="round" stroke-linejoin="round"/>
<path d="M7.32852 9.10893L6.28711 10.6842L9.99796 10.849L9.86614 6.86133L7.32852 9.10893Z" fill="#E4761B" stroke="#E4761B" stroke-width="0.0659121" stroke-linecap="round" stroke-linejoin="round"/>
<path d="M14.6641 9.10868L12.0935 6.81494L12.0078 10.8488L15.7121 10.684L14.6641 9.10868Z" fill="#E4761B" stroke="#E4761B" stroke-width="0.0659121" stroke-linecap="round" stroke-linejoin="round"/>
<path d="M7.54102 16.3067L9.76885 15.2191L7.84421 13.7163L7.54102 16.3067Z" fill="#E4761B" stroke="#E4761B" stroke-width="0.0659121" stroke-linecap="round" stroke-linejoin="round"/>
<path d="M12.2246 15.2191L14.459 16.3067L14.1492 13.7163L12.2246 15.2191Z" fill="#E4761B" stroke="#E4761B" stroke-width="0.0659121" stroke-linecap="round" stroke-linejoin="round"/>
<path d="M14.461 16.3073L12.2266 15.2197L12.4045 16.6764L12.3848 17.2894L14.461 16.3073Z" fill="#D7C1B3" stroke="#D7C1B3" stroke-width="0.0659121" stroke-linecap="round" stroke-linejoin="round"/>
<path d="M7.54102 16.3073L9.61725 17.2894L9.60407 16.6764L9.76885 15.2197L7.54102 16.3073Z" fill="#D7C1B3" stroke="#D7C1B3" stroke-width="0.0659121" stroke-linecap="round" stroke-linejoin="round"/>
<path d="M9.64974 12.7538L7.79102 12.2067L9.10267 11.6069L9.64974 12.7538Z" fill="#233447" stroke="#233447" stroke-width="0.0659121" stroke-linecap="round" stroke-linejoin="round"/>
<path d="M12.3457 12.7538L12.8928 11.6069L14.211 12.2067L12.3457 12.7538Z" fill="#233447" stroke="#233447" stroke-width="0.0659121" stroke-linecap="round" stroke-linejoin="round"/>
<path d="M7.53964 16.3054L7.85602 13.6294L5.79297 13.6887L7.53964 16.3054Z" fill="#CD6116" stroke="#CD6116" stroke-width="0.0659121" stroke-linecap="round" stroke-linejoin="round"/>
<path d="M14.1445 13.6294L14.4609 16.3054L16.2076 13.6887L14.1445 13.6294Z" fill="#CD6116" stroke="#CD6116" stroke-width="0.0659121" stroke-linecap="round" stroke-linejoin="round"/>
<path d="M15.714 10.6836L12.0098 10.8484L12.3525 12.7532L12.8996 11.6064L14.2178 12.2062L15.714 10.6836Z" fill="#CD6116" stroke="#CD6116" stroke-width="0.0659121" stroke-linecap="round" stroke-linejoin="round"/>
<path d="M7.78991 12.2062L9.10815 11.6064L9.64863 12.7532L9.99796 10.8484L6.28711 10.6836L7.78991 12.2062Z" fill="#CD6116" stroke="#CD6116" stroke-width="0.0659121" stroke-linecap="round" stroke-linejoin="round"/>
<path d="M6.28711 10.6836L7.84264 13.7156L7.78991 12.2062L6.28711 10.6836Z" fill="#E4751F" stroke="#E4751F" stroke-width="0.0659121" stroke-linecap="round" stroke-linejoin="round"/>
<path d="M14.2163 12.2062L14.1504 13.7156L15.7125 10.6836L14.2163 12.2062Z" fill="#E4751F" stroke="#E4751F" stroke-width="0.0659121" stroke-linecap="round" stroke-linejoin="round"/>
<path d="M9.99777 10.8486L9.64844 12.7535L10.0835 15.0011L10.1823 12.0416L9.99777 10.8486Z" fill="#E4751F" stroke="#E4751F" stroke-width="0.0659121" stroke-linecap="round" stroke-linejoin="round"/>
<path d="M12.01 10.8486L11.832 12.0351L11.9111 15.0011L12.3527 12.7535L12.01 10.8486Z" fill="#E4751F" stroke="#E4751F" stroke-width="0.0659121" stroke-linecap="round" stroke-linejoin="round"/>
<path d="M12.3537 12.7536L11.9121 15.0012L12.2285 15.2187L14.1531 13.7159L14.219 12.2065L12.3537 12.7536Z" fill="#F6851B" stroke="#F6851B" stroke-width="0.0659121" stroke-linecap="round" stroke-linejoin="round"/>
<path d="M7.79102 12.2065L7.84375 13.7159L9.76838 15.2187L10.0848 15.0012L9.64974 12.7536L7.79102 12.2065Z" fill="#F6851B" stroke="#F6851B" stroke-width="0.0659121" stroke-linecap="round" stroke-linejoin="round"/>
<path d="M12.3856 17.2882L12.4053 16.6753L12.2406 16.5303H9.75566L9.60407 16.6753L9.61725 17.2882L7.54102 16.3062L8.26605 16.8994L9.73589 17.921H12.2603L13.7368 16.8994L14.4618 16.3062L12.3856 17.2882Z" fill="#C0AD9E" stroke="#C0AD9E" stroke-width="0.0659121" stroke-linecap="round" stroke-linejoin="round"/>
<path d="M12.2268 15.219L11.9104 15.0015H10.0847L9.7683 15.219L9.60352 16.6756L9.75511 16.5306H12.24L12.4048 16.6756L12.2268 15.219Z" fill="#161616" stroke="#161616" stroke-width="0.0659121" stroke-linecap="round" stroke-linejoin="round"/>
<path d="M18.8422 7.52713L19.4024 4.83791L18.5654 2.33984L12.2246 7.04597L14.6634 9.10902L18.1106 10.1175L18.8751 9.22766L18.5456 8.99038L19.0729 8.50922L18.6642 8.19284L19.1915 7.79078L18.8422 7.52713Z" fill="#763D16" stroke="#763D16" stroke-width="0.0659121" stroke-linecap="round" stroke-linejoin="round"/>
<path d="M2.5957 4.83791L3.15596 7.52713L2.80003 7.79078L3.32733 8.19284L2.92526 8.50922L3.45256 8.99038L3.123 9.22766L3.88099 10.1175L7.32819 9.10902L9.76694 7.04597L3.4262 2.33984L2.5957 4.83791Z" fill="#763D16" stroke="#763D16" stroke-width="0.0659121" stroke-linecap="round" stroke-linejoin="round"/>
<path d="M18.1137 10.1173L14.6665 9.10889L15.7145 10.6842L14.1523 13.7161L16.2088 13.6898H19.2737L18.1137 10.1173Z" fill="#F6851B" stroke="#F6851B" stroke-width="0.0659121" stroke-linecap="round" stroke-linejoin="round"/>
<path d="M7.3304 9.10889L3.8832 10.1173L2.73633 13.6898H5.79465L7.84452 13.7161L6.28899 10.6842L7.3304 9.10889Z" fill="#F6851B" stroke="#F6851B" stroke-width="0.0659121" stroke-linecap="round" stroke-linejoin="round"/>
<path d="M12.009 10.8485L12.2265 7.04541L13.2284 4.33643H8.7793L9.76798 7.04541L9.99867 10.8485L10.0778 12.0481L10.0844 15.001H11.9101L11.9233 12.0481L12.009 10.8485Z" fill="#F6851B" stroke="#F6851B" stroke-width="0.0659121" stroke-linecap="round" stroke-linejoin="round"/>
</svg>
