<svg width="36" height="36" viewBox="0 0 36 36" fill="none" xmlns="http://www.w3.org/2000/svg">
<path fill-rule="evenodd" clip-rule="evenodd" d="M36 18C36 27.936 27.936 36 18 36C8.064 36 0 27.936 0 18C0 8.064 8.064 0 18 0C27.936 0 36 8.064 36 18ZM8.89258 18.6122L8.96458 18.5042L13.6446 11.1962C13.7166 11.0882 13.8606 11.0882 13.9326 11.2322C14.7246 12.9962 15.3726 15.1562 15.0846 16.5242C14.9406 17.1002 14.5806 17.8562 14.1486 18.5402C14.1126 18.6482 14.0406 18.7562 13.9686 18.8282C13.9326 18.8642 13.8966 18.9002 13.8246 18.9002H9.00058C8.89258 18.8642 8.82058 18.7202 8.89258 18.6122ZM29.7354 21.132V19.98C29.7354 19.872 29.6634 19.8 29.4474 19.908L23.9754 21.492C23.9394 21.492 23.9394 21.492 23.9034 21.528C23.4411 22.0175 23.0404 22.3838 22.8255 22.5802C22.7559 22.6438 22.7058 22.6896 22.6794 22.716C22.3554 23.004 21.9234 23.148 21.4914 23.148H19.5114V21.132H21.0954C21.1314 21.132 21.1674 21.132 21.2034 21.096L21.4194 20.916C21.5274 20.844 21.6354 20.736 21.7434 20.628L21.7434 20.628C21.8172 20.5788 21.8742 20.5128 21.9259 20.4529C21.9498 20.4252 21.9726 20.3988 21.9954 20.376C22.0692 20.3268 22.1262 20.2608 22.1779 20.2009C22.2018 20.1732 22.2246 20.1468 22.2474 20.124C22.3014 20.052 22.3644 19.98 22.4274 19.908C22.4904 19.836 22.5534 19.764 22.6074 19.692C22.7154 19.584 22.7874 19.476 22.8594 19.368L22.8594 19.368C22.8954 19.314 22.9404 19.26 22.9854 19.206C23.0304 19.152 23.0754 19.098 23.1114 19.044C23.1367 18.9682 23.1797 18.9102 23.2279 18.845C23.2485 18.8173 23.2699 18.7882 23.2914 18.756L23.2914 18.756C23.3634 18.648 23.4354 18.54 23.4714 18.468L23.4715 18.4679C23.6155 18.216 23.7594 17.964 23.8674 17.712C23.9224 17.602 23.9564 17.492 23.9855 17.398C23.9944 17.369 24.0029 17.3415 24.0114 17.316C24.0294 17.244 24.0474 17.181 24.0654 17.118C24.0834 17.055 24.1014 16.992 24.1194 16.92C24.1212 16.9037 24.1231 16.8875 24.1249 16.8714C24.1589 16.5669 24.1896 16.2917 24.1554 15.984C24.1554 15.876 24.1554 15.768 24.1194 15.696C24.1194 15.66 24.1194 15.588 24.0834 15.516C24.0474 15.192 23.9394 14.904 23.7954 14.616C23.7774 14.562 23.7504 14.508 23.7234 14.454C23.6964 14.4 23.6694 14.346 23.6514 14.292C23.5794 14.184 23.5164 14.076 23.4534 13.968C23.3904 13.86 23.3274 13.752 23.2554 13.644C23.2328 13.5762 23.1961 13.5226 23.1629 13.4743C23.1432 13.4456 23.1248 13.4188 23.1114 13.392C23.0574 13.32 22.9944 13.239 22.9314 13.158C22.8684 13.077 22.8054 12.996 22.7514 12.924C22.6974 12.87 22.6524 12.807 22.6074 12.744C22.5624 12.681 22.5174 12.618 22.4634 12.564C22.4094 12.51 22.3644 12.456 22.3194 12.402C22.2744 12.348 22.2294 12.294 22.1754 12.24C21.8154 11.844 21.4554 11.484 21.1314 11.196C21.1082 11.1495 21.0699 11.118 21.0264 11.0822C21.0025 11.0625 20.9769 11.0415 20.9514 11.016L20.9514 11.016C20.6994 10.8 20.4474 10.584 20.2674 10.44C20.1595 10.368 20.0875 10.296 20.0155 10.224L20.0154 10.224C19.9074 10.152 19.8354 10.08 19.7994 10.044C19.7994 10.008 19.7634 10.008 19.7634 10.008L19.5474 9.936V8.208C19.5474 7.92 19.4394 7.668 19.2594 7.488C19.0794 7.308 18.8274 7.2 18.5394 7.2C17.9994 7.2 17.5314 7.668 17.5314 8.244V9.432L17.4234 9.396L17.1354 9.324L16.8834 9.252L14.9034 8.712C14.8314 8.676 14.7594 8.784 14.7954 8.856L15.1194 9.432L15.2274 9.64799C15.2454 9.702 15.2724 9.756 15.2994 9.81C15.3264 9.864 15.3534 9.918 15.3714 9.972C15.3894 10.026 15.4164 10.071 15.4434 10.116C15.4704 10.161 15.4974 10.206 15.5154 10.26C15.6234 10.476 15.7314 10.728 15.8394 10.98L16.0554 11.52C16.2354 11.952 16.4154 12.456 16.5594 12.96C16.6198 13.0806 16.6548 13.2265 16.6858 13.3553C16.6917 13.3803 16.6976 13.4046 16.7034 13.428L16.7394 13.5C16.8114 13.752 16.8474 13.968 16.8834 14.22C16.9194 14.364 16.9554 14.544 16.9554 14.688C16.9554 14.778 16.9644 14.868 16.9734 14.958C16.9824 15.048 16.9914 15.138 16.9914 15.228C17.0274 15.408 17.0274 15.588 17.0274 15.732C17.0274 16.164 16.9914 16.56 16.9194 16.92L16.8114 17.244C16.798 17.2842 16.7796 17.3294 16.76 17.3777C16.7268 17.4592 16.69 17.5496 16.6674 17.64C16.6314 17.748 16.5954 17.82 16.5594 17.892C16.3794 18.324 16.1634 18.792 15.9114 19.188C15.5514 19.8 15.2274 20.304 14.9754 20.664C14.9394 20.736 14.9034 20.772 14.8674 20.808C14.7954 20.916 14.8674 21.06 15.0114 21.06H17.5674V23.076H14.9754C14.2914 23.076 13.6434 22.716 13.3194 22.068C13.1754 21.744 13.1034 21.384 13.1394 21.06C13.1394 20.988 13.0674 20.88 12.9594 20.88H7.66744C7.59544 20.88 7.52344 20.952 7.52344 21.024V21.132C7.52344 24.48 10.2234 27.18 13.5354 27.18H22.9314C24.6674 27.18 25.663 25.5903 26.6464 24.0199C26.9274 23.5711 27.2074 23.124 27.5034 22.716C28.0074 21.996 29.2674 21.42 29.6274 21.276C29.6994 21.24 29.7354 21.204 29.7354 21.132Z"/>
</svg>
