<svg width="22" height="23" viewBox="0 0 22 23" fill="none" xmlns="http://www.w3.org/2000/svg">
<path d="M3.40554 12.1885L3.46823 12.0912L7.24904 6.25142C7.3043 6.16589 7.4342 6.17476 7.47602 6.26762C8.10763 7.6653 8.65268 9.40352 8.39733 10.4857C8.28833 10.9309 7.98968 11.5339 7.65369 12.0912C7.61041 12.1723 7.56261 12.2519 7.51184 12.3286C7.48797 12.3639 7.44763 12.3846 7.40432 12.3846H3.51603C3.41148 12.3846 3.35028 12.2725 3.40554 12.1885Z" />
<path d="M20.3078 13.3968V14.3725C20.3078 14.4285 20.2736 14.4784 20.224 14.5001C19.92 14.6309 18.879 15.1102 18.4462 15.714C17.3417 17.2563 16.4978 19.4615 14.6115 19.4615H6.74179C3.9526 19.4615 1.69238 17.1863 1.69238 14.3788V14.2885C1.69238 14.2138 1.75288 14.1531 1.82733 14.1531H6.21436C6.30123 14.1531 6.36485 14.234 6.3571 14.3196C6.32606 14.606 6.37881 14.8986 6.51376 15.1647C6.77437 15.6954 7.31424 16.0268 7.8975 16.0268H10.0693V14.3258H7.92233C7.81217 14.3258 7.74705 14.1982 7.81063 14.108C7.83392 14.0722 7.86029 14.0348 7.88821 13.9928C8.0914 13.7034 8.38151 13.2536 8.67003 12.7416C8.86706 12.3961 9.05787 12.0272 9.21145 11.6569C9.24248 11.5899 9.26728 11.5215 9.29211 11.4545C9.33398 11.3363 9.37744 11.2258 9.40844 11.1153C9.43948 11.0219 9.46431 10.9238 9.48913 10.832C9.56205 10.5177 9.59305 10.1846 9.59305 9.83912C9.59305 9.70373 9.58684 9.56212 9.57443 9.4267C9.56825 9.27886 9.54963 9.13102 9.53101 8.98318C9.51859 8.85244 9.49534 8.72328 9.47051 8.5879C9.43948 8.39024 9.39606 8.19416 9.3464 7.99651L9.32935 7.92181C9.29211 7.78643 9.26107 7.65723 9.21766 7.52185C9.09508 7.09698 8.95393 6.68301 8.80502 6.29551C8.75073 6.14144 8.68865 5.9936 8.62661 5.84576C8.53508 5.62319 8.442 5.42089 8.35668 5.22946C8.31326 5.14231 8.27601 5.06293 8.2388 4.98201C8.1969 4.89019 8.15348 4.79839 8.11003 4.71121C8.07902 4.64429 8.04332 4.58205 8.01849 4.51981L7.75325 4.02802C7.71601 3.9611 7.77805 3.88173 7.85096 3.90196L9.51084 4.35329H9.51551C9.51859 4.35329 9.52014 4.35484 9.52172 4.35484L9.74042 4.41553L9.98089 4.484L10.0693 4.50891V3.51913C10.0693 3.04135 10.4509 2.65384 10.9225 2.65384C11.1583 2.65384 11.3724 2.75031 11.526 2.90751C11.6795 3.06471 11.7757 3.27947 11.7757 3.51913V4.98824L11.9526 5.03803C11.9665 5.0427 11.9805 5.04893 11.9929 5.05826C12.0363 5.09094 12.0984 5.13921 12.1775 5.19832C12.2395 5.24814 12.3062 5.30883 12.3869 5.37107C12.5467 5.50026 12.7375 5.66678 12.9469 5.85818C13.0028 5.90645 13.0571 5.95623 13.1067 6.00605C13.3766 6.25814 13.6791 6.55385 13.9677 6.88067C14.0483 6.97247 14.1274 7.06584 14.2081 7.1639C14.2888 7.2635 14.3741 7.36155 14.4486 7.45961C14.5463 7.59032 14.6518 7.7257 14.7433 7.86735C14.7867 7.93427 14.8364 8.00273 14.8783 8.06965C14.9962 8.24863 15.1001 8.43383 15.1994 8.619C15.2413 8.7046 15.2847 8.79798 15.3219 8.88981C15.4321 9.13725 15.519 9.38937 15.5748 9.64149C15.5919 9.69596 15.6043 9.7551 15.6105 9.80801V9.82044C15.6291 9.89516 15.6353 9.97454 15.6415 10.0555C15.6663 10.3138 15.6539 10.5721 15.5981 10.832C15.5748 10.9425 15.5438 11.0468 15.5066 11.1573C15.4693 11.2631 15.4321 11.3736 15.384 11.4779C15.2909 11.6942 15.1808 11.9105 15.0505 12.1128C15.0086 12.1875 14.9589 12.2669 14.9093 12.3416C14.855 12.421 14.7991 12.4957 14.7495 12.5688C14.6813 12.6622 14.6084 12.7602 14.5339 12.8474C14.4672 12.9392 14.3989 13.031 14.3245 13.112C14.2205 13.2349 14.1212 13.3516 14.0173 13.4637C13.9552 13.5368 13.8885 13.6115 13.8203 13.6784C13.7536 13.7531 13.6853 13.8201 13.6233 13.8823C13.5194 13.9866 13.4325 14.0675 13.3596 14.1344L13.1889 14.2916C13.1641 14.3134 13.1315 14.3258 13.0974 14.3258H11.7757V16.0268H13.4387C13.811 16.0268 14.1647 15.8946 14.4501 15.6518C14.5478 15.5662 14.9745 15.1958 15.4786 14.6371C15.4957 14.6184 15.5174 14.6044 15.5422 14.5982L20.1356 13.266C20.2209 13.2411 20.3078 13.3065 20.3078 13.3968Z" />
</svg>
