<svg width="34" height="34" viewBox="0 0 34 34" fill="none" xmlns="http://www.w3.org/2000/svg">
<g clip-path="url(#clip0_27_365)">
<path d="M19.767 19.7495C19.5249 18.5733 18.7913 17.5569 17.7514 16.9565L16.7208 16.3615C15.6809 15.7611 14.434 15.6341 13.2943 16.0125L11.4886 16.6117C10.7488 16.8574 9.95533 16.8926 9.1966 16.7133C7.38999 16.2862 5.51717 17.0947 4.58891 18.7025L4.27003 19.2548C3.63206 20.3601 3.61182 21.7168 4.21656 22.8407C4.82105 23.9646 5.96449 24.6952 7.23849 24.7719L9.74953 24.923C11.4018 25.0217 12.9109 25.893 13.8227 27.2746L15.2091 29.3737C15.9124 30.4386 17.1168 31.0635 18.3925 31.0252C19.6682 30.987 20.833 30.2911 21.4711 29.1858L21.79 28.6335C22.7184 27.0258 22.482 24.9995 21.2088 23.6485C20.6742 23.0811 20.3079 22.3763 20.1508 21.6128L19.767 19.7495Z" fill="white"/>
<path d="M20.1854 13.4675C19.229 14.6216 19.086 16.0819 19.8669 16.7277C20.648 17.3736 22.0547 16.963 23.0111 15.8089C23.9673 14.6548 24.1105 13.1946 23.3294 12.5487C22.5483 11.9028 21.1417 12.3133 20.1854 13.4675Z" fill="white"/>
<path d="M24.0259 18.9472C22.7344 19.8368 22.1565 21.2391 22.7355 22.0801C23.3144 22.9214 24.831 22.8815 26.1224 21.992C27.4137 21.1026 27.9916 19.7003 27.4132 18.8594C26.8346 18.0183 25.3161 18.0571 24.0259 18.9472Z" fill="white"/>
<path d="M9.79676 14.6095C10.8147 14.6902 11.7402 13.4887 11.8648 11.9256C11.9893 10.3625 11.2651 9.02928 10.2473 8.94825C9.22962 8.86707 8.30417 10.0686 8.17945 11.6327C8.05472 13.1967 8.77879 14.5288 9.79676 14.6095Z" fill="white"/>
<path d="M17.7506 9.32774C16.8002 8.97505 15.6074 9.82856 15.0863 11.2336C14.5652 12.6385 14.9125 14.0637 15.8626 14.4158C16.8128 14.768 18.0056 13.9153 18.5269 12.51C19.0482 11.1047 18.7005 9.68017 17.7506 9.32774Z" fill="white"/>
<path d="M25.25 12.4678C25.7341 11.1453 26.0999 9.39354 26.0553 8.58462C26.045 8.41607 25.9329 8.27079 25.7721 8.21856C25.6115 8.16643 25.4353 8.21779 25.3279 8.34818C24.8287 8.95054 23.9194 10.1151 23.3137 10.7071C23.5485 10.7729 23.7741 10.8672 23.9858 10.9881C24.1278 11.0702 24.2627 11.1639 24.3889 11.2687C24.7726 11.5893 25.0689 12.0019 25.25 12.4678Z" fill="white"/>
<path d="M28.7756 17.922C28.8905 18.091 28.9867 18.272 29.0629 18.4614C29.6757 17.1811 30.0697 15.8069 30.2282 14.3964C30.2388 14.2212 30.137 14.0585 29.9745 13.9916C29.8122 13.9249 29.6253 13.9684 29.5094 14.1003C28.7098 15.018 27.8574 15.8883 26.9562 16.7068C27.2606 16.7784 27.5531 16.8933 27.8248 17.0482C28.2031 17.2645 28.5281 17.5632 28.7756 17.922Z" fill="white"/>
<path d="M11.6105 7.68503C11.8785 7.84165 12.1227 8.03571 12.3358 8.26131C12.594 7.07261 12.9212 5.90012 13.3159 4.74964C13.3719 4.58327 13.3163 4.39979 13.1772 4.29258C13.0381 4.18562 12.8463 4.1787 12.6999 4.27542C11.5563 5.11843 10.5626 6.1478 9.76037 7.32049C9.96475 7.29133 10.1717 7.2844 10.3776 7.29987C10.8123 7.33433 11.2337 7.46578 11.6105 7.68503Z" fill="white"/>
<path d="M19.819 4.98517C19.096 5.35023 17.7617 6.54324 16.8588 7.624C17.3535 7.54803 17.8596 7.59859 18.3298 7.77086C18.4832 7.82774 18.6318 7.89744 18.7736 7.97954C18.9837 8.10191 19.178 8.24984 19.352 8.41984C19.5612 7.60081 20.1156 6.23005 20.3878 5.49643C20.4467 5.33827 20.4031 5.16002 20.2776 5.04715C20.1519 4.93419 19.9701 4.90958 19.819 4.98517Z" fill="white"/>
</g>
<defs>
<clipPath id="clip0_27_365">
<rect width="24" height="24" fill="white" transform="translate(12.6077 0.607697) rotate(30)"/>
</clipPath>
</defs>
</svg>
