<svg width="145" height="146" viewBox="0 0 145 146" fill="none" xmlns="http://www.w3.org/2000/svg">
<path d="M77.4771 16.9896L82.0109 17.5679L83.1898 8.32663L88.0363 8.9449L88.4441 5.74866L74.2173 3.93374L73.8096 7.12998L78.656 7.74825L77.4771 16.9896Z" fill="#140B02"/>
<path d="M92.1192 19.8804L96.177 21.9838L98.4738 17.5529L104.615 20.7361L102.318 25.1671L106.376 27.2704L112.146 16.1387L108.088 14.0353L106.041 17.9843L99.9002 14.801L101.947 10.8521L97.8894 8.74871L92.1192 19.8804Z" fill="#140B02"/>
<path d="M109.474 30.3289L118.812 39.9341L120.846 37.9565L114.596 31.528L116.266 29.9044L121.906 35.7052L123.651 34.0084L118.011 28.2077L119.518 26.7428L125.646 33.0458L127.68 31.0683L118.464 21.5887L109.474 30.3289Z" fill="#140B02"/>
<path d="M124.693 50.7159L125.918 55.2827L128.281 55.6461L129.9 61.6845L128.04 63.1986L129.269 67.7823L139.797 58.632L138.423 53.507L124.693 50.7159ZM130.999 55.842L136.366 56.7235L136.375 56.7574L132.16 60.1721L130.999 55.842Z" fill="#140B02"/>
<path d="M128.946 71.6931L128.588 76.2496L132.411 76.5498L131.981 82.0316C131.701 85.593 133.065 87.6851 135.822 87.9191C138.65 88.1412 140.376 86.2918 140.655 82.7479L141.446 72.6747L128.946 71.6931ZM134.978 76.7514L138.522 77.0297L138.208 81.0275C138.083 82.6162 137.386 83.4397 136.251 83.3506C135.099 83.2601 134.539 82.3379 134.664 80.7492L134.978 76.7514Z" fill="#140B02"/>
<path d="M126.461 89.3709L121.479 101.807L124.113 102.862L127.447 94.5386L129.609 95.4047L126.6 102.915L128.86 103.82L131.869 96.3098L133.819 97.0912L130.55 105.252L133.184 106.307L138.1 94.0334L126.461 89.3709Z" fill="#140B02"/>
<path d="M107.125 116.839C105.132 118.496 103.921 120.71 103.91 122.586L103.896 122.598L102.452 121.134L99.6776 123.44L104.301 129.002L112.866 121.883L111.388 120.105L106.217 124.403C105.498 123.292 106.241 121.446 107.991 119.991C110.24 118.121 112.644 117.945 113.976 119.548C115.353 121.204 114.935 123.441 112.969 125.076C111.69 126.139 110.151 126.507 109.233 125.95L106.43 129.235C108.39 130.771 111.853 130.034 114.937 127.47C119.031 124.068 120.021 119.67 117.402 116.518C114.995 113.623 110.856 113.739 107.125 116.839Z" fill="#140B02"/>
<path d="M89.8006 126.029C84.6093 127.894 82.0542 131.659 83.4159 135.449C84.7775 139.24 89.1443 140.518 94.3356 138.653C99.5105 136.794 102.066 133.029 100.704 129.239C99.3423 125.448 94.9755 124.17 89.8006 126.029ZM90.89 129.061C93.4774 128.132 95.698 128.823 96.4025 130.784C97.107 132.745 95.8337 134.691 93.2463 135.621C90.6588 136.55 88.4218 135.865 87.7173 133.904C87.0128 131.943 88.3025 129.991 90.89 129.061Z" fill="#140B02"/>
<path d="M64.5629 128.705C63.4073 128.686 62.0347 129.084 61.3422 129.668L62.0828 131.519C62.2969 131.278 62.7196 131.127 63.0173 131.132C63.5076 131.14 63.8018 131.354 64.0243 131.673L64.8954 133.036C65.1857 133.496 65.5655 133.835 65.9831 133.999L65.9829 134.017C63.682 134.417 62.33 135.709 62.2996 137.583C62.2587 140.104 64.1611 141.588 67.5229 141.643L78.0635 141.814L78.267 129.277L73.6971 129.203L73.6294 133.37L70.9505 133.327C70.1276 133.314 69.3628 132.951 68.8495 132.207L68.0829 130.881C67.3818 129.836 66.4539 128.735 64.5629 128.705ZM73.5877 135.944L73.5374 139.044L68.9324 138.969C67.6192 138.947 66.8582 138.357 66.8741 137.377C66.8897 136.414 67.6695 135.848 68.9827 135.87L73.5877 135.944Z" fill="#140B02"/>
<path d="M59.6278 127.776L55.2678 126.527L51.8138 138.58L56.1739 139.83L59.6278 127.776Z" fill="#140B02"/>
<path d="M48.3625 123.976L37.8307 117.841L36.1473 120.732L42.7296 124.566L38.1022 132.51L42.0516 134.81L48.3625 123.976Z" fill="#140B02"/>
<path d="M35.1633 115.197L26.7302 106.397L24.3154 108.711L29.586 114.211L22.9483 120.572L26.1107 123.872L35.1633 115.197Z" fill="#140B02"/>
<path d="M24.9789 104.055L22.9702 99.7752L20.5794 99.8333L17.9235 94.1738L19.4885 92.3561L17.4724 88.06L8.71817 98.9193L10.9723 103.723L24.9789 104.055ZM17.8696 100.118L12.431 100.195L12.4162 100.163L15.9651 96.0601L17.8696 100.118Z" fill="#140B02"/>
<path d="M17.0814 65.1182C17.4724 60.5292 15.8355 57.0505 12.8734 56.1303L11.7664 60.254C13.2532 60.7497 14.0731 62.4717 13.8813 64.7225C13.6375 67.584 12.1742 69.2872 10.1328 69.1132C8.0913 68.9393 6.92093 67.2051 7.13649 64.6751C7.28962 62.8779 8.2316 61.517 9.57591 61.2097L9.05583 57.0001C6.24506 57.6042 4.25601 60.528 3.91557 64.5237C3.46809 69.7757 5.73161 73.3254 9.74475 73.6673C13.88 74.0196 16.6072 70.6842 17.0814 65.1182Z" fill="#140B02"/>
<path d="M18.6244 56.259L23.2177 44.9695L20.1196 43.709L17.2488 50.7649L8.73301 47.3001L7.01051 51.5336L18.6244 56.259Z" fill="#140B02"/>
<path d="M30.5966 36.0121C33.8961 32.1516 34.1796 28.4777 31.1977 25.9292L26.0593 21.5374L23.1011 24.9985L28.0532 29.231C29.5974 30.5508 29.4915 32.211 28.092 33.8484C26.6926 35.4858 25.0577 35.8623 23.5136 34.5425L18.5615 30.31L15.5919 33.7845L20.7304 38.1762C23.7123 40.7248 27.3085 39.8592 30.5966 36.0121Z" fill="#140B02"/>
<path d="M39.2996 27.2094L48.8192 21.7383C51.4307 20.2375 52.3184 18.2326 51.2452 16.3651C50.5384 15.1353 49.2143 14.6238 47.747 15.0228L47.7295 14.9924C48.6046 13.9846 48.76 12.7439 48.1318 11.6508C47.0498 9.7681 44.8642 9.54978 42.2679 11.0419L33.0519 16.3384L39.2996 27.2094ZM39.5364 18.4489L38.2624 16.2322L42.21 13.9635C43.1361 13.4312 43.9335 13.5183 44.3349 14.2167C44.7362 14.9151 44.4101 15.6479 43.4839 16.1802L39.5364 18.4489ZM41.9993 22.7695L40.6381 20.401L44.8134 18.0014C45.7851 17.443 46.6542 17.5494 47.0817 18.2934C47.4918 19.007 47.1463 19.8115 46.1746 20.3699L41.9993 22.7695Z" fill="#140B02"/>
</svg>
